<?xml version="1.0" encoding="UTF-8"?>
<svg version="1.1" viewBox="0 0 2048 2029" width="1280" height="1280" xmlns="http://www.w3.org/2000/svg">
<path transform="translate(1233,23)" d="m0 0h342l39 1 27 2 34 5 29 7 23 7 21 8 29 14 26 14 23 14 14 10 10 8 11 9 13 11 15 14 13 13 7 8 11 14 9 11 10 13 11 18 10 17 11 23 12 30 8 27 8 41 4 28 1 22 2 97 2 117v216l-1 108-1 642-1 26-3 27-7 33-6 21-11 32-9 21-12 25-11 19-10 15-14 19-14 17-9 10-7 8-20 20-8 7-14 12-15 12-17 12-25 15-17 9-27 12-27 10-24 7-33 7-21 3-25 2-35 1-62 1h-94l-262-1-199-1-281 2h-191l-72-2-34-3-36-6-25-6-33-11-25-11-20-10-20-12-20-14-16-13-11-9-12-11-10-9-23-23-9-11-11-12-9-11-12-16-13-21-11-21-7-16-8-18-11-33-6-27-4-24-3-31-1-150v-861l1-155 1-47 2-23 5-31 9-34 11-31 11-26 14-27 13-21 16-22 9-11 11-12 9-11 12-12 8-7 30-26 18-13 20-13 23-13 22-11 26-10 40-12 28-6 22-3 15-1 66-1z" fill="#021C61"/>
<path transform="translate(1919,184)" d="m0 0 4 2 11 13 15 23 12 21 10 21 12 30 8 27 8 41 4 28 1 22 2 97 2 117v173l-8 7-2 3h-2l-2 6-7 7-7 8-9 10-7 8-24 28-9 11-12 14-9 11-10 11-9 11-10 11-8 10-11 12-9 11-13 15-9 11-13 15-11 13-12 14-9 11-24 28-9 10-9 11-10 11-8 10-11 13-9 11-13 15-9 10-8 10-11 13-12 14-9 10-11 14-13 14-9 11-12 14-9 11-9 10-9 11-12 14-9 11-13 15-12 14-11 13-12 14-9 11-12 14-9 11-10 11-9 11-10 11-9 11-8 9-9 12-2 3 1 5 14 15 9 11 15 16 7 8 13 15 9 10 7 8 11 12 12 14 12 13 9 11 14 15 7 8 12 13 7 8 9 10 13 15 18 20 9 11 9 10v2l-8 2-43 8-96 19-195 38-229 45-371 73-8 2h-7v-8l10-49 13-62 18-89 17-83 11-55 9-43 13-63 10-48 20-97 19-95 14-68 14-69 12-57 12-60 7-34 4-14 4 4 9 11 11 11 7 8 9 10 7 8 11 12 18 20 12 13 7 8 12 13 7 8 12 13 14 15 22 24 7 8 12 13 7 8 11 12 9 10 11 12 4-2 9-11 10-11 11-14 18-22 13-15 11-14 13-16 12-14 11-14 10-12 9-11 13-15 8-10 11-13 8-10 11-13 9-11 13-15 9-11 11-13 11-14 12-14 8-10 13-16 11-13 13-17 13-15 12-14 11-14 14-17 11-13 9-11 11-13 11-14 13-15 11-13 11-14 10-12 11-14 9-10 8-10 9-11 12-14 8-10 13-16 18-22 12-14 9-11 28-34 9-11 11-13 16-20 11-13 9-11 11-13 8-10 11-13 9-11 13-15 13-17 13-15 9-11 13-16 8-10 11-14 10-12 11-14 13-15 9-11 11-13 11-14 10-11z" fill="#FDD620"/>
<path transform="translate(1300,89)" d="m0 0h10l-1 8-11 48-16 76-13 60-19 90-13 60-12 56-11 51-18 85-15 70-11 51-18 85-14 64-15 71-16 73-5-3-9-10-28-30-14-14-7-8-11-11-7-8-17-17-7-8-29-31-8-8-7-8-18-18-7-8-14-14-7-8-15-15-8-9v-2h-3l-7 9-11 12-9 11-11 12-9 11-10 11-7 8-10 11-9 11-13 15-11 13-9 10-9 11-13 15-9 11-9 10-9 11-13 15-7 8-9 10-11 13-12 14-9 10-9 11-9 10-9 11-12 13-9 11-13 15-12 14-12 13-12 14-9 11-12 14-11 13-8 10-9 10-9 11-12 13-9 11-10 11-9 11-10 11-7 8-9 11-9 10-9 11-10 11-8 10-11 12-9 11-13 15-12 14-10 11-9 11-11 12-24 28-11 14-10 11-9 11-13 15-12 14-11 12-9 11-10 11-8 10-9 11h-2l-2 4-11 12-8 8-5 9-4 2-3 6-6 7-4 5-5 5-11 13-9 11-9 10-9 11-8 9-8 10-11 13-9 11-6 7h-2l-11-23-12-36-6-27-4-24-3-31-1-150v-408h1v53l8-7 11-12 7-8 14-15 9-11 12-13 7-8 12-14 13-14 7-8 9-10 7-8 9-10 7-8 9-10 11-12 7-8 9-10 7-8 13-14 9-11 9-9 7-8 11-13 12-13 9-11 13-15 11-12 12-14 12-13 7-8 12-13 7-8 9-10 12-14 13-15 13-14 7-8 12-13 10-11 9-11 9-10 7-8 9-10 9-11 15-16 11-12 9-11 14-15 9-11 9-10 7-8 10-11 9-11 7-6-2-5-13-15-22-24-16-17-11-12-12-13-11-12-7-7-7-8-8-8-7-8-10-10-7-8-24-26-9-11-24-24-7-8-7-7-7-8-8-7v-2l29-6 61-11 52-10 49-9 63-12 53-10 92-17 63-12 229-43 239-45z" fill="#FDD620"/>
<path transform="translate(1919,184)" d="m0 0 4 2 11 13 15 23 12 21 10 21 12 30 8 27 8 41 2 16-2-2-3-11-3-7-5-27-3-16-4-11-13-28-4-7-11-14-5-10-6-16-5-12-7-13-6-6-6-2-9 9-9 12-11 14-8 9-5 6v3l-5 2-7 8-9 10-9 11-8 12-7 9-10 15-2 5-3 3h-2l-2 5-7 8-5 2v2l-4 4h-2v2l-5 4-10 13-7 9h-2l-2 4-11 14-10 13-7 9-3 6h-2l-1 5-8 7-7 8-5 5-8 9-5 5-10 12-8 11-9 11-8 10-9 10-4 5h-2l-2 4-8 10-9 12-2 3h-2l-2 4-8 9-7 8-13 16-16 20-9 10-9 9-12 18-5 5-8 9-7 10-13 15-3 4h-2l-2 4-3 1-2 4-7 7-5 4-6 8-6 7-3 7-7 8-10 13-14 16-7 10h-2l-2 4-10 11-12 17-11 13-8 11-2 3h-2l-2 4-7 9-7 11h-2v2l-8 7-6 7-7 8-12 12-8 11-3 3-4 7-10 10-7 11-6 8h-2l-2 4-13 14-7 8-4 5-1 2h-2l-2 5-9 12-9 10-11 13-7 11h-2l-2 4-8 8-2 3h-2l-1 3h-2v2h-2l-2 4-14 17-9 11-7 11-12 13-8 12-6 6h-2v2l-5 5-8 9-10 16-2 3h-2l-2 4-14 14-6 4-5 4-4-2-26-26-7-9-11-12v-2h-2l-7-8-9-10-14-14-6-7-5-4v-2h-2l-7-8-4-4v-2h-2l-8-11-8-7-14-16-5-7-7-6-6-7v-2h-2l-6-8-5-5-5-4-8-10v-2h-2l-6-8-5-5v-2h-2l-4-5-2-1v-2h-3v-2l-16-4-2 6-4 6-4 17-4 22-10 50-5 24-4 20-7 36-5 24-4 19-3 14-2 20-5 23-3 7-3 20-7 37-7 33-8 32-3 17-6 28-3 26-4 8-7 35-5 19-7 36-8 40-9 41-4 26-4 21-3 13-4 20-4 14-5 29-5 21-6 33-4 16-8 37-2 3 1-9 14-68 14-70 11-53 13-65 9-43 13-63 10-48 20-97 19-95 14-68 14-69 12-57 12-60 7-34 4-14 4 4 9 11 11 11 7 8 9 10 7 8 11 12 18 20 12 13 7 8 12 13 7 8 12 13 14 15 22 24 7 8 12 13 7 8 11 12 9 10 11 12 4-2 9-11 10-11 11-14 18-22 13-15 11-14 13-16 12-14 11-14 10-12 9-11 13-15 8-10 11-13 8-10 11-13 9-11 13-15 9-11 11-13 11-14 12-14 8-10 13-16 11-13 13-17 13-15 12-14 11-14 14-17 11-13 9-11 11-13 11-14 13-15 11-13 11-14 10-12 11-14 9-10 8-10 9-11 12-14 8-10 13-16 18-22 12-14 9-11 28-34 9-11 11-13 16-20 11-13 9-11 11-13 8-10 11-13 9-11 13-15 13-17 13-15 9-11 13-16 8-10 11-14 10-12 11-14 13-15 9-11 11-13 11-14 10-11z" fill="#F9DE51"/>
<path transform="translate(517,442)" d="m0 0 7 6 11 11v2l4 2 5 5 8 10 14 14 7 10 1 1v5l-4 5-4 6-9 10-11 12-4 6-3 5h-2l-2 5-2 3h-2l-2 4-10 9-4 2-2 4-8 11-11 12-5 5-13 12-6 10-9 10-1 2h-2l-2 4-11 12-8 10-8 12h-2v2h-2v2l-7 6h-2l-2 4-5 6h-2l-2 4-3 1v2l-9 7-7 6-6 8h-2l-1 4-2 5-9 10-9 12-8 13-8 8h-2v2l-11 9-10 10-7 8-14 14-8 10-10 13-5 7-8 7-5 5-7 10-4 5-4 3h-2v2l-8 7-4 5-8 11-11 9-6 8-11 16-2 3h-2l-2 4-11 11-11 8-4 6h-2l-2 4-6 7h-2l-2 6-3 5-5 2-2 5-11 12-6 4-11 12-9 11-9 10-9 11-11 13-7 9-4 6-6 4-7 8-7 7-2 10-5 10v10l3 16v17l-3 12-1 27-1 112h-1v-266h1v53l8-7 11-12 7-8 14-15 9-11 12-13 7-8 12-14 13-14 7-8 9-10 7-8 9-10 7-8 9-10 11-12 7-8 9-10 7-8 13-14 9-11 9-9 7-8 11-13 12-13 9-11 13-15 11-12 12-14 12-13 7-8 12-13 7-8 9-10 12-14 13-15 13-14 7-8 12-13 10-11 9-11 9-10 7-8 9-10 9-11 15-16 11-12 9-11 14-15 9-11 9-10 7-8 10-11 9-11 7-6-2-5-13-15-22-24-16-17z" fill="#F9DD50"/>
<path transform="translate(1633,1234)" d="m0 0v3l-13 14-9 11-12 14-9 11-9 10-9 11-12 14-9 11-13 15-12 14-11 13-12 14-9 11-12 14-9 11-10 11-9 11-10 11-9 11-8 9-9 12-2 3 1 5 14 15 9 11 15 16 7 8 13 15 9 10 7 8 11 12 12 14 12 13 9 11 14 15 7 8 12 13 7 8 9 10 13 15 18 20 9 11 9 10v2l-8 2-43 8-96 19-195 38-229 45-290 57-11 2h-5l2-2 89-17 28-6 113-22 85-17 58-11 38-8 58-11 34-7 44-8 38-8 53-10 65-13 78-15 75-15 2-1 2-7-5-13-4-5-14-14-8-10-7-8v-2h-2l-6-8-11-11-8-7-7-8-3-2v-2l-3-1-5-5-10-6-3-5-3-7-4-8-1-3h-2l-6-8-16-16v-2h-2l-12-16-11-12-7-8-2-4h-2l-6-8-2-4-4-2-5-5-5-6-11-14-8-9 1-5 10-14 8-10 9-9 9-11 9-10 7-9 7-7 9-12 11-12 9-11 11-13 5-6 4-7 11-10 4-7 3-5 4-2 6-8h2l2-4 10-11 7-9h2l1-4 9-10 6-7h2l2-5 9-11 1-2h2v-3h2l1-5 7-8 3-3h2l2-4 3-1 1-3z" fill="#F9DE54"/>
<path transform="translate(1297,140)" d="m0 0h1l-1 10-17 80-18 84-14 66-16 74-12 57-12 55-15 71-14 65-13 61-16 75-12 55-15 71-16 73-5-3-9-10-28-30-14-14 1-2 22 22 8 7 10 9 5 4h6l2-4 5-11 2-8 2-21 7-24 5-22 4-18 1-5 2-15 6-26 3-7 3-14 5-21 2-10 8-36 2-12 4-17 1-9 1-7v-11l8-28 2-5 5-25 3-14 2-11 2-10 2-5 6-24 4-20 2-14 5-23 4-14 3-16 5-25 2-9 2-13 3-10 2-6 5-24 3-17 2-6 3-15 2-17 5-21 2-5 4-23 3-24 4-15 5-13 2-10 3-13 2-11 4-15 4-21 6-26 5-24z" fill="#F9DE51"/>
<path transform="translate(1252,98)" d="m0 0h5l-2 2-22 4-18 4-17 3-18 4-8 1-10 1v2l-9 2-10 2-6 2-12 1-3 1h-8l-8 3-11 2-14 1-7 2-4 1-6 2-11 2-8 1-11 2v-2l-13 3-31 6-10 4-10 2-12 2-2 1-16 2-11 2-2 1-14 2-13 1-4 2h-7l-5 3-10 2-6 2-30 3-19 3-8 3-9 2-9 1-8 2h-8l-16 3h-4v2l-13 3-12 2-2 1-13 2-13 1-4 2h-11l-53 10h-3v2l-5 2-9 1-2 1h-8l-6 2-11 2-4 2-14 3-20 3-18 3-5 2-14 3-10 1-13 2-15 1-4 2h-6l-6 3-25 5h-12l-4 1-2-1v2l-10 1-24 4h-5v2l-9 4-1 2v7l3 9 5 5-1 2-10-10-7-8-8-7v-2l29-6 61-11 52-10 49-9 63-12 53-10 92-17 63-12 229-43 171-32z" fill="#F9DE51"/>
<path transform="translate(390,1380)" d="m0 0v3l-10 11-9 11-13 15-10 11-9 11-11 12-24 28-11 14-10 11-9 11-13 15-12 14-11 12-9 11-10 11-8 10-9 11h-2l-2 4-11 12-8 8-5 9-4 2-3 6-6 7-4 5-5 5-11 13-9 11-9 10-9 11-8 9-8 10-11 13-9 11-6 7h-2l-11-23-12-36-6-27-4-24-3-31v-70h1l1 61 2 31 2 10 6 22 5 28 10 26 3 3v2l5 2 4 2 8 2v3l8-10h2l2-4 12-15 7-10 8-10 7-7 4-1 5-7 4-6 4-5h2l2-4 5-5 1-7 1-24 2-3v2h3l2 22h2l-1-6 2-3h3l-2-4v-14l5-2v11l1 2h2l1 2 4-10 5-8 2 3 2-1 2 1 1-9 5-6h2l18-22 3-1 2-4 7-8 9-7 10-10 7-10 7-6 9-11 4-6 5-4 18-22 7-11 8-11h2v-2h2l1-3h2v-2l3-3h2l1-3h2l2-4 9-9h2l2-4 9-11 8-8 9-11 11-13 7-9z" fill="#F9DE51"/>
<path transform="translate(2e3 509)" d="m0 0h1l2 117v173l-8 7-2 3h-2l-2 6-7 7-7 8-9 10-7 8-24 28-9 11-12 14-9 11-10 11-9 11-10 11-8 10-11 12-9 11-13 15-9 11-13 15-11 13-12 14-9 11-24 28-9 10-9 11-10 11-8 10-11 13-9 11-13 15-9 10-8 10-11 13-12 14-9 10-9 11v-3l8-10 12-13 8-10 10-12 4-6 12-13 7-8 12-14 8-9 6-8 7-11 3-4h2l2-4h2l2-5 5-6h2l1-3 5-5h2l2-4 3-3h2l1-4 3-4h2l2-4 7-8 9-10 3-5h2l2-4 7-8 6-10 4-5h2l2-4 9-10 1-2h2v-2l5-5h2l2-4 14-17 11-11 9-11 5-5 3-5 9-10 6-9 10-9 7-9 5-7 8-7 12-14 11-13 7-8 12-14 13-15 4-5 4-7 20-20v-36l-1-33z" fill="#F9DE55"/>
<path transform="translate(853,843)" d="m0 0v3l-11 12-9 11-14 15-9 11-9 10-9 11-13 15-9 10-9 11-13 15-9 11-9 10-9 11-13 15-7 8-9 10-11 13-12 14-9 10-9 11-9 10-9 11-12 13-9 11-13 15-12 14-12 13-12 14-9 11-12 14-11 13-8 10-9 10-9 11-12 13-9 11-10 11-9 11-10 11-7 8-9 11-9 10-9 11-10 11-8 10-4 3 1-4 4-3 1-4 4-5 5-5 7-10 7-9 7-6 5-2 1-4 15-16 11-14 9-9 6-9 3-6 8-9 6-8 8-7 4-2v-2l8-7 7-8 5-9 8-8 6-8 13-17 3-4h2l2-5 7-8h2l1-3h2v-2l5-3 9-9 7-8 9-10 8-10 13-15 11-12 9-13 6-5 7-11 7-5 9-11 5-6 3-7 5-6 6-3 7-7 7-10 8-11 11-14 5-3 4-5h2l2-4 9-12h2l2-4 6-7 4-7h2l2-5 7-7 7-8 6-5 7-9h2l3-6h2l2-4 5-5 15-16 7-8 11-13 9-10z" fill="#F9DE51"/>
<path transform="translate(390,1380)" d="m0 0v3l-10 11-9 11-13 15-10 11-9 11-11 12-24 28-11 14-10 11-9 11-13 15-12 14-11 12-9 11-10 11-8 10-9 11h-2l-2 4-11 12-8 8h-2l1-7 6-9 2 3 2-1 2 1 1-9 5-6h2l18-22 3-1 2-4 7-8 9-7 10-10 7-10 7-6 9-11 4-6 5-4 18-22 7-11 8-11h2v-2h2l1-3h2v-2l3-3h2l1-3h2l2-4 9-9h2l2-4 9-11 8-8 9-11 11-13 7-9z" fill="#F9DE52"/>
<path transform="translate(1868,958)" d="m0 0v3l-13 14-9 11-22 26-12 14-9 11-9 10-8 10-24 28-9 10-9 11-10 11-8 10-11 13-9 11-13 15-9 10-8 10-11 13-12 14-9 10-9 11v-3l8-10 12-13 8-10 10-12 4-6 12-13 7-8 12-14 8-9 6-8 7-11 3-4h2l2-4h2l2-5 5-6h2l1-3 5-5h2l2-4 3-3h2l1-4 3-4h2l2-4 7-8 9-10 3-5h2l2-4 7-8 6-10 4-5h2l2-4 9-10 1-2h2v-2l5-5h2l2-4 14-17z" fill="#F9DE55"/>
<path transform="translate(588,1149)" d="m0 0m-1 1m-1 1m-1 1m-1 1m-1 1m-1 1m-1 1m-1 1 2 1-2 4-13 14-8 10-11 13-12 14-11 14-11 12-9 11-12 13-9 11-10 11-9 11-10 11-7 8-9 11-9 10-9 11-10 11-8 10-4 3 1-4 4-3 1-4 4-5 5-5 7-10 7-9 7-6 5-2 1-4 15-16 11-14 9-9 6-9 3-6 8-9 6-8 8-7 4-2v-2l8-7 7-8 5-9 8-8 6-8 13-17 3-4h2l2-5 7-8h2l1-3h2v-2z" fill="#F9DE51"/>
<path transform="translate(382,297)" d="m0 0 7 6 9 9 7 6 5 3 10 11v2h2v2l4 2 7 7v2h2l5 6v2h2l5 8 2 5 11 11 5 3 3 3v2l4 2 7 7 5 7 2 4 19 19 6 5 5 8-1 2-10-10-7-8-14-15-16-17-15-16-7-7-7-8-24-26-9-11-24-24z" fill="#F9DE52"/>
<path transform="translate(1752,1092)" d="m0 0 2 2-24 28-9 11-11 13-12 14-7 8-11 13-9 11-36 42v-3l8-10 12-13 8-10 10-12 4-6 12-13 7-8 12-14 8-9 6-8 7-11 3-4h2l2-4h2l2-5 5-6h2l1-3z" fill="#F9DE51"/>
<path transform="translate(1633,1234)" d="m0 0v3l-13 14-9 11-12 14-9 11-9 10-9 11-12 14-9 11-13 15h-3l5-9 4-2 6-8h2l2-4 10-11 7-9h2l1-4 9-10 6-7h2l2-5 9-11 1-2h2v-3h2l1-5 7-8 3-3h2l2-4 3-1 1-3z" fill="#F9DE51"/>
<path transform="translate(1535,1349)" d="m0 0v3l-10 11-9 11-13 15-9 11-12 14-9 11-10 11-9 11-10 11-9 11-8 9-9 12-3 6-2-3 11-15 8-10 9-9 9-11 9-10 7-9 7-7 9-12 11-12 9-11 11-13 5-6 4-7z" fill="#F9DE51"/>
<path transform="translate(853,843)" d="m0 0v3l-11 12-9 11-14 15-9 11-9 10-9 11-13 15-9 10-8 10h-2l2-6 3-5h2l2-5 7-7 7-8 6-5 7-9h2l3-6h2l2-4 5-5 15-16 7-8 11-13 9-10z" fill="#F9E05F"/>
<path transform="translate(390,1380)" d="m0 0v3l-10 11-9 11-13 15-10 11-9 11-11 12-12 14-13 15-2-1 2-5 9-12h2v-2h2l1-3h2v-2l3-3h2l1-3h2l2-4 9-9h2l2-4 9-11 8-8 9-11 11-13 7-9z" fill="#F9E36D"/>
<path transform="translate(965,887)" d="m0 0 7 6 10 10 8 7 6 5 7 8 8 11 5 6 11 9 11 11 7 9-1 3-11-11-7-8-17-17-7-8-29-31-8-8z" fill="#F9DE51"/>
<path transform="translate(588,1149)" d="m0 0m-1 1m-1 1m-1 1m-1 1m-1 1m-1 1m-1 1m-1 1 2 1-2 4-13 14-8 10-11 13-9 11-3-1 6-9 7-8 12-16h2l2-5 7-8h2l1-3h2v-2z" fill="#F9E36C"/>
<path transform="translate(826,1194)" d="m0 0h1v13l-5 27-4 10-3 20-4 4 1-10 13-63z" fill="#F9DE56"/>
<path transform="translate(438,1323)" d="m0 0 3 1-11 12-9 11-10 11-8 10-4 3 1-4 4-3 1-4 4-5 5-5 7-10 7-9 7-6z" fill="#F9E26A"/>
<path transform="translate(517,442)" d="m0 0 7 6 11 11v2l4 2 5 5 8 10 14 14 7 10 1 4-5-5-12-14-22-24-16-17z" fill="#F9DE52"/>
<path transform="translate(1300,89)" d="m0 0h10l-1 8-2 8-2-4h-3v-2h-2v-2h-2l-1-3 6-2 4-1-15 2-29 5h-6v-1z" fill="#F9DD50"/>
<path transform="translate(1982,824)" d="m0 0 2 2-13 14-7 8-24 28-9 11-4 2 6-8 12-14 7-8 12-14 13-15z" fill="#F9DE51"/>
<path transform="translate(1633,1234)" d="m0 0v3l-13 14-9 11-4 5h-2v-4h2l1-5 7-8 3-3h2l2-4 3-1 1-3z" fill="#F9E166"/>
<path transform="translate(390,1380)" d="m0 0v3l-10 11-9 11-13 15-10 11-5 6-1-2 9-11 8-8 9-11 11-13 7-9z" fill="#F9DE51"/>
<path transform="translate(1603,1266)" d="m0 0 3 1-6 8-11 13-13 15-2 3-3-1h2l1-4 9-10 6-7h2l2-5 9-11z" fill="#F9DF57"/>
<path transform="translate(919,839)" d="m0 0 7 6 9 9 8 7 9 9 3 5-1 2-14-14-7-8-14-14z" fill="#F9DE51"/>
<path transform="translate(706,1014)" d="m0 0v3l-15 16-6 8h-2v-5l7-9 6-3z" fill="#F9DF5A"/>
<path transform="translate(472,1285)" d="m0 0v3l-10 11-9 11-10 11-1 2h-2l1-4 15-16 9-11z" fill="#F9DE51"/>
<path transform="translate(677,1917)" d="m0 0 1 4 4 2 2 3-1 2 12-3h5l-4 2-13 3h-7v-8z" fill="#F9DE51"/>
<path transform="translate(1888,933)" d="m0 0 2 2-9 10-8 10-3 3h-2l2-4 4-4 3-5z" fill="#F9DE51"/>
<path transform="translate(1773,1068)" d="m0 0 2 2-13 15-7 8h-2v-3h2l2-4 3-3h2l1-4 3-4h2l2-4z" fill="#FAE476"/>
<path transform="translate(1798,1040)" d="m0 0v3l-8 9-9 11-5 6h-2l1-4 7-7 7-10 8-7z" fill="#F9E05C"/>
<path transform="translate(419,1345)" d="m0 0 2 2-10 11-8 10-4 3 1-4 4-3 1-4 4-5 5-5z" fill="#F9E370"/>
<path transform="translate(264,1527)" d="m0 0v3l-11 12-7 8-2 3h-2l2-4 9-11 5-5z" fill="#F9DF59"/>
<path transform="translate(1603,1266)" d="m0 0 3 1-6 8-8 10-3-1h2l2-5 9-11z" fill="#F9E05D"/>
<path transform="translate(556,484)" d="m0 0 4 2 8 9 6 8-1 3-9-11-8-9z" fill="#F9E060"/>
<path transform="translate(602,1134)" d="m0 0v3l-11 12-8 10-2-2 7-7 7-9z" fill="#F9DE54"/>
<path transform="translate(341,1436)" d="m0 0 1 2-9 11-5 4-1-3 11-11h2z" fill="#FAE57B"/>
<path transform="translate(390,1380)" d="m0 0v3l-10 11-5 6-2-1 9-11 5-6z" fill="#F9E162"/>
<path transform="translate(536,1209)" d="m0 0 2 2-11 13-2-1 6-9z" fill="#F9DE54"/>
<path transform="translate(546,1197)" d="m0 0 2 2-9 11-3-1 6-8z" fill="#F9E370"/>
<path transform="translate(139,1624)" d="m0 0h1l1 8v11l-2 2-1-2v-10z" fill="#F9DE51"/>
<path transform="translate(809,893)" d="m0 0 2 1-10 11-1 2h-2l1-4 2-3h2l2-4z" fill="#F9E370"/>
<path transform="translate(886,805)" d="m0 0 4 1 3 4 4 2 4 8-4-2-8-9v-2l-3-1z" fill="#F9DE51"/>
<path transform="translate(453,1307)" d="m0 0v3l-10 11-1 2h-2l1-4z" fill="#F9DF5A"/>
<path transform="translate(354,1422)" d="m0 0v3l-11 12-1-2 7-8z" fill="#F9DF56"/>
<path transform="translate(1760,1083)" d="m0 0 3 1-8 9h-2v-3h2l2-4z" fill="#FAE57A"/>
</svg>
